{
	"patcher" : 	{
		"fileversion" : 1,
		"appversion" : 		{
			"major" : 5,
			"minor" : 1,
			"revision" : 9
		}
,
		"rect" : [ 767.0, 430.0, 979.0, 457.0 ],
		"bglocked" : 0,
		"defrect" : [ 767.0, 430.0, 979.0, 457.0 ],
		"openrect" : [ 0.0, 0.0, 0.0, 0.0 ],
		"openinpresentation" : 0,
		"default_fontsize" : 12.0,
		"default_fontface" : 0,
		"default_fontname" : "Arial",
		"gridonopen" : 0,
		"gridsize" : [ 15.0, 15.0 ],
		"gridsnaponopen" : 0,
		"toolbarvisible" : 1,
		"boxanimatetime" : 200,
		"imprint" : 0,
		"enablehscroll" : 1,
		"enablevscroll" : 1,
		"devicewidth" : 0.0,
		"boxes" : [ 			{
				"box" : 				{
					"maxclass" : "newobj",
					"text" : "loadbang",
					"outlettype" : [ "bang" ],
					"patching_rect" : [ 194.0, 91.0, 60.0, 20.0 ],
					"id" : "obj-13",
					"fontname" : "Arial",
					"numinlets" : 1,
					"numoutlets" : 1,
					"hidden" : 1,
					"fontsize" : 12.0
				}

			}
, 			{
				"box" : 				{
					"maxclass" : "message",
					"text" : "goto 1",
					"outlettype" : [ "" ],
					"patching_rect" : [ -19.0, 109.0, 44.0, 18.0 ],
					"id" : "obj-39",
					"fontname" : "Arial",
					"numinlets" : 2,
					"numoutlets" : 1,
					"fontsize" : 12.0
				}

			}
, 			{
				"box" : 				{
					"maxclass" : "message",
					"text" : "clear",
					"outlettype" : [ "" ],
					"patching_rect" : [ 19.0, 163.0, 37.0, 18.0 ],
					"id" : "obj-35",
					"fontname" : "Arial",
					"numinlets" : 2,
					"numoutlets" : 1,
					"fontsize" : 12.0
				}

			}
, 			{
				"box" : 				{
					"maxclass" : "message",
					"text" : "open",
					"outlettype" : [ "" ],
					"patching_rect" : [ 27.0, 365.0, 37.0, 18.0 ],
					"id" : "obj-30",
					"fontname" : "Arial",
					"numinlets" : 2,
					"numoutlets" : 1,
					"fontsize" : 12.0
				}

			}
, 			{
				"box" : 				{
					"maxclass" : "ezdac~",
					"patching_rect" : [ 27.0, 390.0, 33.0, 33.0 ],
					"id" : "obj-32",
					"numinlets" : 2,
					"numoutlets" : 0
				}

			}
, 			{
				"box" : 				{
					"maxclass" : "comment",
					"text" : "20130221 version:  pre-loads coll",
					"patching_rect" : [ 762.0, 346.0, 143.0, 17.0 ],
					"id" : "obj-19",
					"fontname" : "Arial",
					"numinlets" : 1,
					"numoutlets" : 0,
					"fontsize" : 9.0
				}

			}
, 			{
				"box" : 				{
					"maxclass" : "message",
					"text" : "$1 $1",
					"outlettype" : [ "" ],
					"patching_rect" : [ 178.0, 138.0, 41.0, 18.0 ],
					"id" : "obj-34",
					"fontname" : "Arial",
					"numinlets" : 2,
					"numoutlets" : 1,
					"fontsize" : 12.0
				}

			}
, 			{
				"box" : 				{
					"maxclass" : "message",
					"text" : "60",
					"outlettype" : [ "" ],
					"patching_rect" : [ 151.0, 92.0, 32.5, 18.0 ],
					"id" : "obj-31",
					"fontname" : "Arial",
					"numinlets" : 2,
					"numoutlets" : 1,
					"fontsize" : 12.0
				}

			}
, 			{
				"box" : 				{
					"maxclass" : "newobj",
					"text" : "Uzi",
					"outlettype" : [ "bang", "bang", "int" ],
					"patching_rect" : [ 151.0, 113.0, 46.0, 20.0 ],
					"id" : "obj-28",
					"fontname" : "Arial",
					"numinlets" : 2,
					"numoutlets" : 3,
					"fontsize" : 12.0
				}

			}
, 			{
				"box" : 				{
					"maxclass" : "comment",
					"text" : "48=subwoofer",
					"patching_rect" : [ 116.0, 234.0, 78.0, 17.0 ],
					"id" : "obj-27",
					"fontname" : "Arial",
					"numinlets" : 1,
					"numoutlets" : 0,
					"fontsize" : 9.0
				}

			}
, 			{
				"box" : 				{
					"maxclass" : "message",
					"text" : "127",
					"outlettype" : [ "" ],
					"patching_rect" : [ 391.0, 167.0, 32.5, 18.0 ],
					"id" : "obj-21",
					"fontname" : "Arial",
					"numinlets" : 2,
					"numoutlets" : 1,
					"fontsize" : 12.0
				}

			}
, 			{
				"box" : 				{
					"maxclass" : "number",
					"outlettype" : [ "int", "bang" ],
					"patching_rect" : [ 274.0, 307.0, 50.0, 20.0 ],
					"id" : "obj-25",
					"fontname" : "Arial",
					"numinlets" : 1,
					"numoutlets" : 2,
					"fontsize" : 12.0
				}

			}
, 			{
				"box" : 				{
					"maxclass" : "number",
					"outlettype" : [ "int", "bang" ],
					"patching_rect" : [ 66.0, 79.0, 50.0, 20.0 ],
					"id" : "obj-29",
					"fontname" : "Arial",
					"numinlets" : 1,
					"numoutlets" : 2,
					"fontsize" : 12.0
				}

			}
, 			{
				"box" : 				{
					"maxclass" : "toggle",
					"outlettype" : [ "int" ],
					"patching_rect" : [ 26.0, 75.0, 20.0, 20.0 ],
					"id" : "obj-26",
					"numinlets" : 1,
					"numoutlets" : 1
				}

			}
, 			{
				"box" : 				{
					"maxclass" : "newobj",
					"text" : "metro 250",
					"outlettype" : [ "bang" ],
					"patching_rect" : [ 26.0, 103.0, 65.0, 20.0 ],
					"id" : "obj-24",
					"fontname" : "Arial",
					"numinlets" : 2,
					"numoutlets" : 1,
					"fontsize" : 12.0
				}

			}
, 			{
				"box" : 				{
					"maxclass" : "newobj",
					"text" : "coll sequence",
					"outlettype" : [ "", "", "", "" ],
					"patching_rect" : [ 26.0, 126.0, 84.0, 20.0 ],
					"id" : "obj-23",
					"fontname" : "Arial",
					"numinlets" : 1,
					"numoutlets" : 4,
					"fontsize" : 12.0,
					"saved_object_attributes" : 					{
						"embed" : 0
					}

				}

			}
, 			{
				"box" : 				{
					"maxclass" : "message",
					"text" : "100",
					"outlettype" : [ "" ],
					"patching_rect" : [ 265.0, 175.0, 32.5, 18.0 ],
					"id" : "obj-22",
					"fontname" : "Arial",
					"numinlets" : 2,
					"numoutlets" : 1,
					"fontsize" : 12.0
				}

			}
, 			{
				"box" : 				{
					"maxclass" : "comment",
					"text" : "Test patch to put a mix of pink noise and a sine wave in any particular speaker. (Good for figuring out the location of each speaker and also for hearing how nonidentical their frequency responses are.)",
					"linecount" : 3,
					"patching_rect" : [ 141.0, 18.0, 643.0, 69.0 ],
					"id" : "obj-1",
					"fontname" : "Arial",
					"numinlets" : 1,
					"numoutlets" : 0,
					"fontsize" : 18.0
				}

			}
, 			{
				"box" : 				{
					"maxclass" : "message",
					"text" : "clear",
					"outlettype" : [ "" ],
					"patching_rect" : [ 53.0, 309.0, 33.0, 15.0 ],
					"id" : "obj-2",
					"fontname" : "Arial",
					"numinlets" : 2,
					"numoutlets" : 1,
					"fontsize" : 9.0
				}

			}
, 			{
				"box" : 				{
					"maxclass" : "newobj",
					"text" : "sel 0",
					"outlettype" : [ "bang", "" ],
					"patching_rect" : [ 69.0, 262.0, 32.0, 17.0 ],
					"id" : "obj-3",
					"fontname" : "Arial",
					"numinlets" : 2,
					"numoutlets" : 2,
					"fontsize" : 9.0
				}

			}
, 			{
				"box" : 				{
					"maxclass" : "newobj",
					"text" : "loadmess ramp 50",
					"outlettype" : [ "" ],
					"patching_rect" : [ 106.0, 336.0, 92.0, 17.0 ],
					"id" : "obj-4",
					"fontname" : "Arial",
					"numinlets" : 1,
					"numoutlets" : 1,
					"fontsize" : 9.0
				}

			}
, 			{
				"box" : 				{
					"maxclass" : "newobj",
					"text" : "- 1",
					"outlettype" : [ "int" ],
					"patching_rect" : [ 89.0, 284.0, 27.0, 17.0 ],
					"id" : "obj-5",
					"fontname" : "Arial",
					"numinlets" : 2,
					"numoutlets" : 1,
					"fontsize" : 9.0
				}

			}
, 			{
				"box" : 				{
					"maxclass" : "message",
					"text" : "clear, connect 0 $1",
					"outlettype" : [ "" ],
					"patching_rect" : [ 89.0, 308.0, 98.0, 15.0 ],
					"id" : "obj-6",
					"fontname" : "Arial",
					"numinlets" : 2,
					"numoutlets" : 1,
					"fontsize" : 9.0
				}

			}
, 			{
				"box" : 				{
					"maxclass" : "scope~",
					"patching_rect" : [ 448.0, 165.0, 130.0, 130.0 ],
					"id" : "obj-7",
					"rounded" : 0,
					"numinlets" : 2,
					"bgcolor" : [ 0.529412, 0.529412, 0.529412, 1.0 ],
					"numoutlets" : 0
				}

			}
, 			{
				"box" : 				{
					"maxclass" : "newobj",
					"text" : "+~",
					"outlettype" : [ "signal" ],
					"patching_rect" : [ 368.0, 308.0, 27.0, 17.0 ],
					"id" : "obj-8",
					"fontname" : "Arial",
					"numinlets" : 2,
					"numoutlets" : 1,
					"fontsize" : 9.0
				}

			}
, 			{
				"box" : 				{
					"maxclass" : "flonum",
					"outlettype" : [ "float", "bang" ],
					"patching_rect" : [ 348.0, 116.0, 35.0, 17.0 ],
					"htextcolor" : [ 0.870588, 0.870588, 0.870588, 1.0 ],
					"id" : "obj-9",
					"fontname" : "Arial",
					"numinlets" : 1,
					"bgcolor" : [ 0.866667, 0.866667, 0.866667, 1.0 ],
					"numoutlets" : 2,
					"triscale" : 0.9,
					"fontsize" : 9.0
				}

			}
, 			{
				"box" : 				{
					"maxclass" : "gain~",
					"outlettype" : [ "signal", "int" ],
					"patching_rect" : [ 349.0, 164.0, 22.0, 122.0 ],
					"id" : "obj-10",
					"numinlets" : 2,
					"orientation" : 2,
					"numoutlets" : 2
				}

			}
, 			{
				"box" : 				{
					"maxclass" : "newobj",
					"text" : "cycle~ 40",
					"outlettype" : [ "signal" ],
					"patching_rect" : [ 348.0, 138.0, 55.0, 17.0 ],
					"id" : "obj-11",
					"fontname" : "Arial",
					"numinlets" : 2,
					"numoutlets" : 1,
					"fontsize" : 9.0
				}

			}
, 			{
				"box" : 				{
					"maxclass" : "number",
					"outlettype" : [ "int", "bang" ],
					"minimum" : 0,
					"patching_rect" : [ 68.0, 182.0, 73.0, 48.0 ],
					"maximum" : 60,
					"htextcolor" : [ 0.870588, 0.870588, 0.870588, 1.0 ],
					"id" : "obj-12",
					"fontname" : "Arial",
					"numinlets" : 1,
					"bgcolor" : [ 0.866667, 0.866667, 0.866667, 1.0 ],
					"numoutlets" : 2,
					"triscale" : 0.9,
					"fontsize" : 36.0
				}

			}
, 			{
				"box" : 				{
					"maxclass" : "newobj",
					"text" : "dac~ 1 2 3 4 5 6 7 8 9 10 11 12 13 14 15 16 17 18 19 20 21 22 23 24 25 26 27 28 29 30 31 32 33 34 35 36 37 38 39 40 41 42 43 44 45 46 47 48 49 50 51 52 53 54 55 56 57 58 59 60",
					"patching_rect" : [ 88.0, 405.0, 815.5, 17.0 ],
					"id" : "obj-14",
					"fontname" : "Arial",
					"numinlets" : 60,
					"numoutlets" : 0,
					"fontsize" : 9.0
				}

			}
, 			{
				"box" : 				{
					"maxclass" : "newobj",
					"text" : "matrix~ 1 60 1.",
					"outlettype" : [ "signal", "signal", "signal", "signal", "signal", "signal", "signal", "signal", "signal", "signal", "signal", "signal", "signal", "signal", "signal", "signal", "signal", "signal", "signal", "signal", "signal", "signal", "signal", "signal", "signal", "signal", "signal", "signal", "signal", "signal", "signal", "signal", "signal", "signal", "signal", "signal", "signal", "signal", "signal", "signal", "signal", "signal", "signal", "signal", "signal", "signal", "signal", "signal", "signal", "signal", "signal", "signal", "signal", "signal", "signal", "signal", "signal", "signal", "signal", "signal", "list" ],
					"patching_rect" : [ 87.0, 370.0, 829.0, 17.0 ],
					"id" : "obj-15",
					"fontname" : "Arial",
					"numinlets" : 1,
					"numoutlets" : 61,
					"fontsize" : 9.0
				}

			}
, 			{
				"box" : 				{
					"maxclass" : "gain~",
					"outlettype" : [ "signal", "int" ],
					"patching_rect" : [ 311.0, 164.0, 22.0, 122.0 ],
					"id" : "obj-16",
					"numinlets" : 2,
					"orientation" : 2,
					"numoutlets" : 2
				}

			}
, 			{
				"box" : 				{
					"maxclass" : "newobj",
					"text" : "pink~",
					"outlettype" : [ "signal" ],
					"patching_rect" : [ 310.0, 138.0, 34.0, 17.0 ],
					"id" : "obj-17",
					"fontname" : "Arial",
					"numinlets" : 1,
					"numoutlets" : 1,
					"fontsize" : 9.0
				}

			}
, 			{
				"box" : 				{
					"maxclass" : "comment",
					"text" : "by Matt Wright 20081202",
					"patching_rect" : [ 763.0, 323.0, 129.0, 17.0 ],
					"id" : "obj-18",
					"fontname" : "Arial",
					"numinlets" : 1,
					"numoutlets" : 0,
					"fontsize" : 9.0
				}

			}
, 			{
				"box" : 				{
					"maxclass" : "comment",
					"text" : "Which speaker?",
					"patching_rect" : [ 65.0, 163.0, 78.0, 17.0 ],
					"id" : "obj-20",
					"fontname" : "Arial",
					"numinlets" : 1,
					"numoutlets" : 0,
					"fontsize" : 9.0
				}

			}
 ],
		"lines" : [ 			{
				"patchline" : 				{
					"source" : [ "obj-29", 0 ],
					"destination" : [ "obj-24", 1 ],
					"hidden" : 0,
					"midpoints" : [  ]
				}

			}
, 			{
				"patchline" : 				{
					"source" : [ "obj-26", 0 ],
					"destination" : [ "obj-24", 0 ],
					"hidden" : 0,
					"midpoints" : [  ]
				}

			}
, 			{
				"patchline" : 				{
					"source" : [ "obj-24", 0 ],
					"destination" : [ "obj-23", 0 ],
					"hidden" : 0,
					"midpoints" : [  ]
				}

			}
, 			{
				"patchline" : 				{
					"source" : [ "obj-13", 0 ],
					"destination" : [ "obj-31", 0 ],
					"hidden" : 1,
					"midpoints" : [  ]
				}

			}
, 			{
				"patchline" : 				{
					"source" : [ "obj-34", 0 ],
					"destination" : [ "obj-23", 0 ],
					"hidden" : 0,
					"midpoints" : [ 187.5, 156.0 ]
				}

			}
, 			{
				"patchline" : 				{
					"source" : [ "obj-28", 2 ],
					"destination" : [ "obj-34", 0 ],
					"hidden" : 0,
					"midpoints" : [  ]
				}

			}
, 			{
				"patchline" : 				{
					"source" : [ "obj-31", 0 ],
					"destination" : [ "obj-28", 0 ],
					"hidden" : 0,
					"midpoints" : [  ]
				}

			}
, 			{
				"patchline" : 				{
					"source" : [ "obj-21", 0 ],
					"destination" : [ "obj-10", 0 ],
					"hidden" : 0,
					"midpoints" : [  ]
				}

			}
, 			{
				"patchline" : 				{
					"source" : [ "obj-23", 1 ],
					"destination" : [ "obj-12", 0 ],
					"hidden" : 0,
					"midpoints" : [  ]
				}

			}
, 			{
				"patchline" : 				{
					"source" : [ "obj-22", 0 ],
					"destination" : [ "obj-16", 0 ],
					"hidden" : 0,
					"midpoints" : [  ]
				}

			}
, 			{
				"patchline" : 				{
					"source" : [ "obj-8", 0 ],
					"destination" : [ "obj-7", 0 ],
					"hidden" : 0,
					"midpoints" : [  ]
				}

			}
, 			{
				"patchline" : 				{
					"source" : [ "obj-16", 0 ],
					"destination" : [ "obj-8", 0 ],
					"hidden" : 0,
					"midpoints" : [  ]
				}

			}
, 			{
				"patchline" : 				{
					"source" : [ "obj-10", 0 ],
					"destination" : [ "obj-8", 0 ],
					"hidden" : 0,
					"midpoints" : [  ]
				}

			}
, 			{
				"patchline" : 				{
					"source" : [ "obj-11", 0 ],
					"destination" : [ "obj-10", 0 ],
					"hidden" : 0,
					"midpoints" : [  ]
				}

			}
, 			{
				"patchline" : 				{
					"source" : [ "obj-9", 0 ],
					"destination" : [ "obj-11", 0 ],
					"hidden" : 0,
					"midpoints" : [  ]
				}

			}
, 			{
				"patchline" : 				{
					"source" : [ "obj-17", 0 ],
					"destination" : [ "obj-16", 0 ],
					"hidden" : 0,
					"midpoints" : [  ]
				}

			}
, 			{
				"patchline" : 				{
					"source" : [ "obj-5", 0 ],
					"destination" : [ "obj-6", 0 ],
					"hidden" : 0,
					"midpoints" : [  ]
				}

			}
, 			{
				"patchline" : 				{
					"source" : [ "obj-3", 1 ],
					"destination" : [ "obj-5", 0 ],
					"hidden" : 0,
					"midpoints" : [  ]
				}

			}
, 			{
				"patchline" : 				{
					"source" : [ "obj-3", 0 ],
					"destination" : [ "obj-2", 0 ],
					"hidden" : 0,
					"midpoints" : [  ]
				}

			}
, 			{
				"patchline" : 				{
					"source" : [ "obj-16", 1 ],
					"destination" : [ "obj-25", 0 ],
					"hidden" : 0,
					"midpoints" : [  ]
				}

			}
, 			{
				"patchline" : 				{
					"source" : [ "obj-30", 0 ],
					"destination" : [ "obj-32", 0 ],
					"hidden" : 0,
					"midpoints" : [  ]
				}

			}
, 			{
				"patchline" : 				{
					"source" : [ "obj-15", 47 ],
					"destination" : [ "obj-14", 47 ],
					"hidden" : 0,
					"midpoints" : [  ]
				}

			}
, 			{
				"patchline" : 				{
					"source" : [ "obj-15", 46 ],
					"destination" : [ "obj-14", 46 ],
					"hidden" : 0,
					"midpoints" : [  ]
				}

			}
, 			{
				"patchline" : 				{
					"source" : [ "obj-15", 45 ],
					"destination" : [ "obj-14", 45 ],
					"hidden" : 0,
					"midpoints" : [  ]
				}

			}
, 			{
				"patchline" : 				{
					"source" : [ "obj-15", 44 ],
					"destination" : [ "obj-14", 44 ],
					"hidden" : 0,
					"midpoints" : [  ]
				}

			}
, 			{
				"patchline" : 				{
					"source" : [ "obj-15", 43 ],
					"destination" : [ "obj-14", 43 ],
					"hidden" : 0,
					"midpoints" : [  ]
				}

			}
, 			{
				"patchline" : 				{
					"source" : [ "obj-15", 42 ],
					"destination" : [ "obj-14", 42 ],
					"hidden" : 0,
					"midpoints" : [  ]
				}

			}
, 			{
				"patchline" : 				{
					"source" : [ "obj-15", 41 ],
					"destination" : [ "obj-14", 41 ],
					"hidden" : 0,
					"midpoints" : [  ]
				}

			}
, 			{
				"patchline" : 				{
					"source" : [ "obj-15", 40 ],
					"destination" : [ "obj-14", 40 ],
					"hidden" : 0,
					"midpoints" : [  ]
				}

			}
, 			{
				"patchline" : 				{
					"source" : [ "obj-15", 39 ],
					"destination" : [ "obj-14", 39 ],
					"hidden" : 0,
					"midpoints" : [  ]
				}

			}
, 			{
				"patchline" : 				{
					"source" : [ "obj-15", 38 ],
					"destination" : [ "obj-14", 38 ],
					"hidden" : 0,
					"midpoints" : [  ]
				}

			}
, 			{
				"patchline" : 				{
					"source" : [ "obj-15", 37 ],
					"destination" : [ "obj-14", 37 ],
					"hidden" : 0,
					"midpoints" : [  ]
				}

			}
, 			{
				"patchline" : 				{
					"source" : [ "obj-15", 36 ],
					"destination" : [ "obj-14", 36 ],
					"hidden" : 0,
					"midpoints" : [  ]
				}

			}
, 			{
				"patchline" : 				{
					"source" : [ "obj-15", 27 ],
					"destination" : [ "obj-14", 27 ],
					"hidden" : 0,
					"midpoints" : [  ]
				}

			}
, 			{
				"patchline" : 				{
					"source" : [ "obj-15", 26 ],
					"destination" : [ "obj-14", 26 ],
					"hidden" : 0,
					"midpoints" : [  ]
				}

			}
, 			{
				"patchline" : 				{
					"source" : [ "obj-15", 25 ],
					"destination" : [ "obj-14", 25 ],
					"hidden" : 0,
					"midpoints" : [  ]
				}

			}
, 			{
				"patchline" : 				{
					"source" : [ "obj-15", 24 ],
					"destination" : [ "obj-14", 24 ],
					"hidden" : 0,
					"midpoints" : [  ]
				}

			}
, 			{
				"patchline" : 				{
					"source" : [ "obj-15", 23 ],
					"destination" : [ "obj-14", 23 ],
					"hidden" : 0,
					"midpoints" : [  ]
				}

			}
, 			{
				"patchline" : 				{
					"source" : [ "obj-15", 22 ],
					"destination" : [ "obj-14", 22 ],
					"hidden" : 0,
					"midpoints" : [  ]
				}

			}
, 			{
				"patchline" : 				{
					"source" : [ "obj-15", 21 ],
					"destination" : [ "obj-14", 21 ],
					"hidden" : 0,
					"midpoints" : [  ]
				}

			}
, 			{
				"patchline" : 				{
					"source" : [ "obj-15", 20 ],
					"destination" : [ "obj-14", 20 ],
					"hidden" : 0,
					"midpoints" : [  ]
				}

			}
, 			{
				"patchline" : 				{
					"source" : [ "obj-15", 19 ],
					"destination" : [ "obj-14", 19 ],
					"hidden" : 0,
					"midpoints" : [  ]
				}

			}
, 			{
				"patchline" : 				{
					"source" : [ "obj-15", 18 ],
					"destination" : [ "obj-14", 18 ],
					"hidden" : 0,
					"midpoints" : [  ]
				}

			}
, 			{
				"patchline" : 				{
					"source" : [ "obj-15", 17 ],
					"destination" : [ "obj-14", 17 ],
					"hidden" : 0,
					"midpoints" : [  ]
				}

			}
, 			{
				"patchline" : 				{
					"source" : [ "obj-15", 16 ],
					"destination" : [ "obj-14", 16 ],
					"hidden" : 0,
					"midpoints" : [  ]
				}

			}
, 			{
				"patchline" : 				{
					"source" : [ "obj-15", 15 ],
					"destination" : [ "obj-14", 15 ],
					"hidden" : 0,
					"midpoints" : [  ]
				}

			}
, 			{
				"patchline" : 				{
					"source" : [ "obj-15", 14 ],
					"destination" : [ "obj-14", 14 ],
					"hidden" : 0,
					"midpoints" : [  ]
				}

			}
, 			{
				"patchline" : 				{
					"source" : [ "obj-15", 13 ],
					"destination" : [ "obj-14", 13 ],
					"hidden" : 0,
					"midpoints" : [  ]
				}

			}
, 			{
				"patchline" : 				{
					"source" : [ "obj-15", 12 ],
					"destination" : [ "obj-14", 12 ],
					"hidden" : 0,
					"midpoints" : [  ]
				}

			}
, 			{
				"patchline" : 				{
					"source" : [ "obj-15", 11 ],
					"destination" : [ "obj-14", 11 ],
					"hidden" : 0,
					"midpoints" : [  ]
				}

			}
, 			{
				"patchline" : 				{
					"source" : [ "obj-15", 10 ],
					"destination" : [ "obj-14", 10 ],
					"hidden" : 0,
					"midpoints" : [  ]
				}

			}
, 			{
				"patchline" : 				{
					"source" : [ "obj-15", 9 ],
					"destination" : [ "obj-14", 9 ],
					"hidden" : 0,
					"midpoints" : [  ]
				}

			}
, 			{
				"patchline" : 				{
					"source" : [ "obj-15", 8 ],
					"destination" : [ "obj-14", 8 ],
					"hidden" : 0,
					"midpoints" : [  ]
				}

			}
, 			{
				"patchline" : 				{
					"source" : [ "obj-15", 7 ],
					"destination" : [ "obj-14", 7 ],
					"hidden" : 0,
					"midpoints" : [  ]
				}

			}
, 			{
				"patchline" : 				{
					"source" : [ "obj-15", 6 ],
					"destination" : [ "obj-14", 6 ],
					"hidden" : 0,
					"midpoints" : [  ]
				}

			}
, 			{
				"patchline" : 				{
					"source" : [ "obj-15", 5 ],
					"destination" : [ "obj-14", 5 ],
					"hidden" : 0,
					"midpoints" : [  ]
				}

			}
, 			{
				"patchline" : 				{
					"source" : [ "obj-15", 4 ],
					"destination" : [ "obj-14", 4 ],
					"hidden" : 0,
					"midpoints" : [  ]
				}

			}
, 			{
				"patchline" : 				{
					"source" : [ "obj-15", 3 ],
					"destination" : [ "obj-14", 3 ],
					"hidden" : 0,
					"midpoints" : [  ]
				}

			}
, 			{
				"patchline" : 				{
					"source" : [ "obj-15", 2 ],
					"destination" : [ "obj-14", 2 ],
					"hidden" : 0,
					"midpoints" : [  ]
				}

			}
, 			{
				"patchline" : 				{
					"source" : [ "obj-15", 1 ],
					"destination" : [ "obj-14", 1 ],
					"hidden" : 0,
					"midpoints" : [  ]
				}

			}
, 			{
				"patchline" : 				{
					"source" : [ "obj-15", 0 ],
					"destination" : [ "obj-14", 0 ],
					"hidden" : 0,
					"midpoints" : [  ]
				}

			}
, 			{
				"patchline" : 				{
					"source" : [ "obj-15", 28 ],
					"destination" : [ "obj-14", 28 ],
					"hidden" : 0,
					"midpoints" : [  ]
				}

			}
, 			{
				"patchline" : 				{
					"source" : [ "obj-15", 29 ],
					"destination" : [ "obj-14", 29 ],
					"hidden" : 0,
					"midpoints" : [  ]
				}

			}
, 			{
				"patchline" : 				{
					"source" : [ "obj-15", 30 ],
					"destination" : [ "obj-14", 30 ],
					"hidden" : 0,
					"midpoints" : [  ]
				}

			}
, 			{
				"patchline" : 				{
					"source" : [ "obj-15", 31 ],
					"destination" : [ "obj-14", 31 ],
					"hidden" : 0,
					"midpoints" : [  ]
				}

			}
, 			{
				"patchline" : 				{
					"source" : [ "obj-15", 32 ],
					"destination" : [ "obj-14", 32 ],
					"hidden" : 0,
					"midpoints" : [  ]
				}

			}
, 			{
				"patchline" : 				{
					"source" : [ "obj-15", 33 ],
					"destination" : [ "obj-14", 33 ],
					"hidden" : 0,
					"midpoints" : [  ]
				}

			}
, 			{
				"patchline" : 				{
					"source" : [ "obj-15", 34 ],
					"destination" : [ "obj-14", 34 ],
					"hidden" : 0,
					"midpoints" : [  ]
				}

			}
, 			{
				"patchline" : 				{
					"source" : [ "obj-15", 35 ],
					"destination" : [ "obj-14", 35 ],
					"hidden" : 0,
					"midpoints" : [  ]
				}

			}
, 			{
				"patchline" : 				{
					"source" : [ "obj-8", 0 ],
					"destination" : [ "obj-15", 0 ],
					"hidden" : 0,
					"midpoints" : [  ]
				}

			}
, 			{
				"patchline" : 				{
					"source" : [ "obj-4", 0 ],
					"destination" : [ "obj-15", 0 ],
					"hidden" : 0,
					"midpoints" : [  ]
				}

			}
, 			{
				"patchline" : 				{
					"source" : [ "obj-6", 0 ],
					"destination" : [ "obj-15", 0 ],
					"hidden" : 0,
					"midpoints" : [  ]
				}

			}
, 			{
				"patchline" : 				{
					"source" : [ "obj-2", 0 ],
					"destination" : [ "obj-15", 0 ],
					"hidden" : 0,
					"midpoints" : [  ]
				}

			}
, 			{
				"patchline" : 				{
					"source" : [ "obj-15", 48 ],
					"destination" : [ "obj-14", 48 ],
					"hidden" : 0,
					"midpoints" : [  ]
				}

			}
, 			{
				"patchline" : 				{
					"source" : [ "obj-15", 49 ],
					"destination" : [ "obj-14", 49 ],
					"hidden" : 0,
					"midpoints" : [  ]
				}

			}
, 			{
				"patchline" : 				{
					"source" : [ "obj-15", 50 ],
					"destination" : [ "obj-14", 50 ],
					"hidden" : 0,
					"midpoints" : [  ]
				}

			}
, 			{
				"patchline" : 				{
					"source" : [ "obj-15", 51 ],
					"destination" : [ "obj-14", 51 ],
					"hidden" : 0,
					"midpoints" : [  ]
				}

			}
, 			{
				"patchline" : 				{
					"source" : [ "obj-15", 52 ],
					"destination" : [ "obj-14", 52 ],
					"hidden" : 0,
					"midpoints" : [  ]
				}

			}
, 			{
				"patchline" : 				{
					"source" : [ "obj-15", 53 ],
					"destination" : [ "obj-14", 53 ],
					"hidden" : 0,
					"midpoints" : [  ]
				}

			}
, 			{
				"patchline" : 				{
					"source" : [ "obj-15", 54 ],
					"destination" : [ "obj-14", 54 ],
					"hidden" : 0,
					"midpoints" : [  ]
				}

			}
, 			{
				"patchline" : 				{
					"source" : [ "obj-15", 55 ],
					"destination" : [ "obj-14", 55 ],
					"hidden" : 0,
					"midpoints" : [  ]
				}

			}
, 			{
				"patchline" : 				{
					"source" : [ "obj-15", 56 ],
					"destination" : [ "obj-14", 56 ],
					"hidden" : 0,
					"midpoints" : [  ]
				}

			}
, 			{
				"patchline" : 				{
					"source" : [ "obj-15", 57 ],
					"destination" : [ "obj-14", 57 ],
					"hidden" : 0,
					"midpoints" : [  ]
				}

			}
, 			{
				"patchline" : 				{
					"source" : [ "obj-15", 58 ],
					"destination" : [ "obj-14", 58 ],
					"hidden" : 0,
					"midpoints" : [  ]
				}

			}
, 			{
				"patchline" : 				{
					"source" : [ "obj-15", 59 ],
					"destination" : [ "obj-14", 59 ],
					"hidden" : 0,
					"midpoints" : [  ]
				}

			}
, 			{
				"patchline" : 				{
					"source" : [ "obj-35", 0 ],
					"destination" : [ "obj-23", 0 ],
					"hidden" : 0,
					"midpoints" : [  ]
				}

			}
, 			{
				"patchline" : 				{
					"source" : [ "obj-39", 0 ],
					"destination" : [ "obj-23", 0 ],
					"hidden" : 0,
					"midpoints" : [  ]
				}

			}
, 			{
				"patchline" : 				{
					"source" : [ "obj-12", 0 ],
					"destination" : [ "obj-3", 0 ],
					"hidden" : 0,
					"midpoints" : [  ]
				}

			}
 ]
	}

}
